<?xml version="1.0" encoding="UTF-8" standalone="no"?>
<svg
   width="525.30143"
   height="609.59458"
   viewBox="0 0 525.30143 609.59458"
   version="1.1"
   id="svg19"
   sodipodi:docname="mobile.svg"
   inkscape:version="1.3.2 (091e20e, 2023-11-25, custom)"
   xmlns:inkscape="http://www.inkscape.org/namespaces/inkscape"
   xmlns:sodipodi="http://sodipodi.sourceforge.net/DTD/sodipodi-0.dtd"
   xmlns="http://www.w3.org/2000/svg"
   xmlns:svg="http://www.w3.org/2000/svg">
  <defs
     id="defs19" />
  <sodipodi:namedview
     id="namedview19"
     pagecolor="#505050"
     bordercolor="#ffffff"
     borderopacity="1"
     inkscape:showpageshadow="0"
     inkscape:pageopacity="0"
     inkscape:pagecheckerboard="1"
     inkscape:deskcolor="#505050"
     inkscape:zoom="1.3467967"
     inkscape:cx="262.47466"
     inkscape:cy="304.0548"
     inkscape:window-width="1920"
     inkscape:window-height="1017"
     inkscape:window-x="-8"
     inkscape:window-y="-8"
     inkscape:window-maximized="1"
     inkscape:current-layer="svg19" />
  <path
     d="m400.74937,609.15198h-199.55937c-26.00248,0-47.15726-21.1545-47.15726-47.15726V47.15726c0-26.00276,21.15478-47.15726,47.15726-47.15726h199.55937c26.00276,0,47.15726,21.1545,47.15726,47.15726v514.83746c0,26.00276-21.1545,47.15726-47.15726,47.15726Z"
     fill="#2f2e41"
     stroke-width="0"
     id="path1" />
  <path
     d="m400.95274,596.42516h-199.96612c-19.51083,0-35.38405-15.8735-35.38405-35.38405V45.21841c0-19.51054,15.87322-35.38405,35.38405-35.38405h199.96612c19.51054,0,35.38405,15.8735,35.38405,35.38405v515.82271c0,19.51054-15.8735,35.38405-35.38405,35.38405Z"
     fill="#fff"
     stroke-width="0"
     id="path2" />
  <path
     d="m332.20824,43.38689h-63.63411c-7.33651,0-13.30531-5.96852-13.30531-13.30531s5.9688-13.30531,13.30531-13.30531h63.63411c7.33679,0,13.30531,5.96852,13.30531,13.30531s-5.96852,13.30531-13.30531,13.30531Z"
     fill="#2f2e41"
     stroke-width="0"
     id="path3" />
  <rect
     x="307.90111"
     y="439.53768"
     width="74.9702"
     height="29.20164"
     rx="4.64455"
     ry="4.64455"
     fill="#fff"
     stroke-width="0"
     id="rect3" />
</svg>
